<?xml version="1.0" encoding="UTF-8" standalone="no"?>
<!-- Created with Inkscape (http://www.inkscape.org/) -->

<svg
   xmlns:dc="http://purl.org/dc/elements/1.1/"
   xmlns:cc="http://creativecommons.org/ns#"
   xmlns:rdf="http://www.w3.org/1999/02/22-rdf-syntax-ns#"
   xmlns:svg="http://www.w3.org/2000/svg"
   xmlns="http://www.w3.org/2000/svg"
   xmlns:sodipodi="http://sodipodi.sourceforge.net/DTD/sodipodi-0.dtd"
   xmlns:inkscape="http://www.inkscape.org/namespaces/inkscape"
   width="1907.27"
   height="520"
   id="svg19105"
   version="1.1"
   inkscape:version="0.48.4 r9939"
   sodipodi:docname="Neues Dokument 19">
  <defs
     id="defs19107" />
  <sodipodi:namedview
     id="base"
     pagecolor="#ffffff"
     bordercolor="#666666"
     borderopacity="1.0"
     inkscape:pageopacity="0.0"
     inkscape:pageshadow="2"
     inkscape:zoom="0.82129279"
     inkscape:cx="953.63502"
     inkscape:cy="260"
     inkscape:document-units="px"
     inkscape:current-layer="layer1"
     showgrid="false"
     fit-margin-top="0"
     fit-margin-left="0"
     fit-margin-right="0"
     fit-margin-bottom="0"
     inkscape:window-width="1680"
     inkscape:window-height="990"
     inkscape:window-x="-4"
     inkscape:window-y="-4"
     inkscape:window-maximized="1" />
  <metadata
     id="metadata19110">
    <rdf:RDF>
      <cc:Work
         rdf:about="">
        <dc:format>image/svg+xml</dc:format>
        <dc:type
           rdf:resource="http://purl.org/dc/dcmitype/StillImage" />
        <dc:title></dc:title>
      </cc:Work>
    </rdf:RDF>
  </metadata>
  <g
     inkscape:label="Ebene 1"
     inkscape:groupmode="layer"
     id="layer1"
     transform="translate(-61.723549,201.11121)">
    <g
       id="g7040"
       transform="matrix(33.302251,0,0,-33.302251,132.40103,-171.6627)">
      <path
         inkscape:connector-curvature="0"
         d="m 0,0 -1.822,0 0,0.089 6.173,0 0,-0.089 -1.842,0 0,-14.072 0.609,0 c 4.322,0 5.232,1.581 5.6,4.352 l 0.091,0 0,-4.437 -10.631,0 0,0.085 1.822,0 L 0,0 z"
         style="fill:#000000;fill-opacity:1;fill-rule:nonzero;stroke:none"
         id="path7042" />
    </g>
    <g
       id="g7044"
       transform="matrix(33.302251,0,0,-33.302251,639.56101,130.85495)">
      <path
         inkscape:connector-curvature="0"
         d="m 0,0 -0.367,-0.001 c -2.2,0 -3.041,-0.181 -3.041,-2.739 l 0,-0.486 c 0,-1.392 0.47,-2.014 1.287,-2.014 1.478,0 2.121,0.693 2.121,1.748 L 0,0 z m 2.024,-3.942 c 0,-0.859 0.209,-1.127 0.567,-1.127 0.283,0 0.567,0.248 0.77,0.599 L 3.45,-4.521 C 3.094,-5.149 2.681,-5.292 1.785,-5.292 c -1.116,0 -1.737,0.81 -1.754,1.192 -0.22,-0.748 -0.879,-1.246 -2.186,-1.246 -1.806,0 -3.23,0.985 -3.23,2.62 0,1.985 1.818,2.817 5.018,2.817 L 0,0.093 0,2.16 c -0.003,0.903 -0.01,1.761 -1.66,1.761 -0.913,0 -2.231,-0.229 -1.423,-1.352 0.169,-0.235 0.315,-0.493 0.315,-0.745 0,-0.554 -0.478,-0.922 -0.894,-0.922 -0.466,0 -1.054,0.181 -1.054,0.944 0,1.075 1.119,2.158 2.977,2.158 2.152,0 3.763,-0.914 3.763,-3.164 l 0,-4.782 z"
         style="fill:#000000;fill-opacity:1;fill-rule:nonzero;stroke:none"
         id="path7046" />
    </g>
    <g
       id="g7048"
       transform="matrix(33.302251,0,0,-33.302251,807.01459,14.230473)">
      <path
         inkscape:connector-curvature="0"
         d="m 0,0 -1.458,0 0,0.088 3.482,0 0,-1.646 c 0.196,0.991 0.762,2.065 2.41,2.065 1.276,0 2.124,-0.402 2.609,-1.009 0.708,-0.87 0.81,-1.882 0.81,-2.873 l 0,-5.119 1.457,0 0,-0.081 -4.898,0 0,0.081 1.417,0 0,5.933 c 0,2.048 -0.128,2.981 -1.499,2.981 -1.518,0 -2.306,-1.17 -2.306,-3.123 l 0,-5.791 1.416,0 0,-0.081 -4.898,0 0,0.081 1.458,0 L 0,0 z"
         style="fill:#000000;fill-opacity:1;fill-rule:nonzero;stroke:none"
         id="path7050" />
    </g>
    <g
       id="g7052"
       transform="matrix(33.302251,0,0,-33.302251,1296.7912,18.459859)">
      <path
         inkscape:connector-curvature="0"
         d="m 0,0 c -0.417,0.375 -0.916,0.546 -1.478,0.546 -1.915,0 -2.072,-1.973 -2.072,-4.304 0,-3.372 0.227,-4.824 2.017,-4.824 0.324,0 1.258,0.019 1.882,1.08 0.395,0.646 0.45,1.62 0.45,3.474 C 0.799,-1.447 0.77,-0.707 0,0 m 2.607,-8.363 1.457,0 0,-0.085 -3.481,0 0,1.118 c -0.222,-0.386 -0.749,-1.337 -2.125,-1.337 -1.923,0 -4.169,1.846 -4.169,4.598 0,3.044 2.368,4.7 4.21,4.7 1.315,0 1.841,-0.815 2.084,-1.179 l 0,6.754 -1.457,0 0,0.085 3.481,0.002 0,-14.656 z"
         style="fill:#000000;fill-opacity:1;fill-rule:nonzero;stroke:none"
         id="path7054" />
    </g>
    <g
       id="g7056"
       transform="matrix(33.302251,0,0,-33.302251,1569.3898,304.25978)">
      <path
         inkscape:connector-curvature="0"
         d="m 0,0 c 2.125,0 2.186,1.736 2.186,4.551 0,2.812 0,4.577 -2.186,4.577 -2.084,0 -2.206,-1.684 -2.206,-4.577 C -2.206,1.656 -2.145,0 0,0 m 0,9.209 c 2.024,0 4.453,-1.806 4.453,-4.658 0,-2.854 -2.429,-4.64 -4.453,-4.64 -2.024,0 -4.473,1.806 -4.473,4.64 0,2.833 2.51,4.658 4.473,4.658"
         style="fill:#000000;fill-opacity:1;fill-rule:nonzero;stroke:none"
         id="path7058" />
    </g>
    <g
       id="g7060"
       transform="matrix(33.302251,0,0,-33.302251,1763.5419,14.230473)">
      <path
         inkscape:connector-curvature="0"
         d="m 0,0 -1.458,0 0,0.084 3.482,0 0,-1.284 c 0.168,0.614 0.607,1.696 1.963,1.696 1.07,0 1.882,-0.671 1.882,-1.417 0,-0.426 -0.328,-0.946 -1.077,-0.946 -0.607,0 -1.007,0.42 -1.007,0.824 0,0.264 0.08,0.607 0.08,0.851 0,0.303 -0.148,0.484 -0.431,0.484 -0.51,0 -1.41,-0.733 -1.41,-2.583 l 0,-6.203 1.457,0 0,-0.081 -4.939,0 0,0.081 1.458,0 L 0,0 z"
         style="fill:#000000;fill-opacity:1;fill-rule:nonzero;stroke:none"
         id="path7062" />
    </g>
  </g>
</svg>
